<svg id="Layer_1" data-name="Layer 1" xmlns="http://www.w3.org/2000/svg" viewBox="0 0 538.58 99.21"><defs><style>.cls-1{fill:#4995d1;}.cls-2{fill:#fff;stroke:#fff;stroke-miterlimit:10;}.cls-3{fill:#27c4f1;}</style></defs><title>Artboard 1 copy 5</title><path class="cls-1" d="M35.71,2.7a31.49,31.49,0,0,1-21.5,12.68A50.87,50.87,0,0,0,31.15,76.07,31.48,31.48,0,0,1,61.14,35a50.59,50.59,0,0,0-3.93-19.61A31.49,31.49,0,0,1,35.71,2.7Z"/><path class="cls-1" d="M86.56,2.7a31.47,31.47,0,0,1-21.5,12.68A50.58,50.58,0,0,0,61.14,35a31.48,31.48,0,0,1,30,41.08,50.87,50.87,0,0,0,16.94-60.69A31.51,31.51,0,0,1,86.56,2.7Z"/><path class="cls-2" d="M41.78,85.51s94.33,19.38,238.44-.38,248.08-.4,248.08-.4-107-15.42-248.08,3.93S41.78,85.51,41.78,85.51Z"/><path class="cls-2" d="M129.28,53.67l4.15-2.7c2.46,2.45,4.79,3,8.07,3,4.13,0,6.44-1.94,6.44-4.81,0-3.11-2.31-4.08-5.46-5.47l-4.73-2c-3.29-1.39-6.94-4-6.94-8.93,0-5.37,4.72-9.4,11.2-9.4a14.58,14.58,0,0,1,10.33,4.3l-2.82,3.43A10.87,10.87,0,0,0,142,28c-3.47,0-5.74,1.67-5.74,4.4,0,2.92,2.73,4,5.51,5.14l4.68,2c4,1.72,6.95,4.22,6.95,9.22,0,5.47-4.54,9.91-12,9.91A17,17,0,0,1,129.28,53.67Z"/><path class="cls-2" d="M159.84,24H180l-.69,4.5H165.21V38h12.51v4.54H165.21v11H179.8l.7,4.54H159.84Z"/><path class="cls-2" d="M185.77,41.12c0-11.12,6.76-17.78,15.38-17.78a13.14,13.14,0,0,1,9.68,4.3l-2.92,3.43A9.06,9.06,0,0,0,201.24,28c-5.88,0-10,4.91-10,12.92S195.08,54,201.1,54a9.92,9.92,0,0,0,7.55-3.61l2.87,3.38a13.44,13.44,0,0,1-10.6,4.91C192.35,58.67,185.77,52.28,185.77,41.12Z"/><path class="cls-2" d="M216.57,43.44V24h5.37V43.81c0,7.68,3.05,10.18,7.32,10.18s7.45-2.5,7.45-10.18V24h5.19V43.44c0,11.11-5.09,15.23-12.64,15.23S216.57,54.55,216.57,43.44Z"/><path class="cls-2" d="M250.69,24h5.52l11.3,20,3.56,7.22h.23c-.27-3.51-.69-7.64-.69-11.34V24h5.09V58.07h-5.51L258.89,38l-3.56-7.13h-.24c.28,3.52.7,7.45.7,11.16V58.07h-5.1Z"/><path class="cls-2" d="M282.83,40.89c0-11,6.07-17.55,14.82-17.55s14.87,6.57,14.87,17.55-6.12,17.78-14.87,17.78S282.83,51.86,282.83,40.89Zm24.18,0c0-8-3.71-12.88-9.36-12.88s-9.31,4.87-9.31,12.88S292,54,297.65,54,307,48.9,307,40.89Z"/><path class="cls-2" d="M319.6,24H325V53.53h14.4v4.54H319.6Z"/><path class="cls-2" d="M342,40.89c0-11,6.07-17.55,14.82-17.55s14.87,6.57,14.87,17.55-6.12,17.78-14.87,17.78S342,51.86,342,40.89Zm24.18,0c0-8-3.71-12.88-9.36-12.88s-9.31,4.87-9.31,12.88S351.18,54,356.83,54,366.19,48.9,366.19,40.89Z"/><path class="cls-2" d="M376.93,41.12c0-11.12,6.85-17.78,15.88-17.78A13.64,13.64,0,0,1,403,27.64L400,31.07A9.24,9.24,0,0,0,393,28c-6.35,0-10.56,4.91-10.56,12.92S386.19,54,393.23,54a8.47,8.47,0,0,0,5.37-1.66v-8h-5.3l-1.46-4.41h11.62V54.69a15.29,15.29,0,0,1-10.79,4C383.55,58.67,376.93,52.28,376.93,41.12Z"/><path class="cls-2" d="M416.84,45.15,406.61,24h5.74l3.94,9c1.06,2.55,2,4.91,3.2,7.51h.18c1.11-2.6,2.22-5,3.24-7.51l4-9h5.6L422.22,45.15V58.07h-5.38Z"/><path class="cls-2" d="M488.81,48.34H477L474,58.07h-5.46L479.87,24h6.2l11.3,34.09h-5.69Zm-1.3-4.21-1.34-4.59C485,35.84,484,32,482.92,28.2h-.18c-1,3.89-2,7.64-3.15,11.34l-1.39,4.59Z"/><path class="cls-2" d="M501.86,24h10.56c7,0,12,2.23,12,8.39a7.57,7.57,0,0,1-4.86,7.36V40c3.89.83,6.72,3.48,6.72,8.11,0,6.76-5.51,10-13.06,10h-11.4Zm10,14.22c5.19,0,7.36-1.94,7.36-5.14,0-3.57-2.4-4.91-7.22-4.91h-4.72V38.2Zm.83,15.66c5.33,0,8.39-1.9,8.39-6.07,0-3.85-3-5.51-8.39-5.51h-5.41V53.86Z"/><path class="cls-1" d="M149.52,31l2.82-3.42a14.41,14.41,0,0,0-5.07-3.32l-1.71,4.3A12.46,12.46,0,0,1,149.52,31Z"/><rect class="cls-3" x="447.27" y="23.98" width="5.37" height="6.42"/><polygon class="cls-2" points="452.64 53.53 452.64 30.4 447.27 30.4 447.27 58.07 467.04 58.07 465.8 53.53 452.64 53.53"/></svg>